<svg width="4001" height="542" viewBox="0 0 4001 542" fill="none" xmlns="http://www.w3.org/2000/svg">
<path d="M1598.54 218.653H1404.44L1530.46 0.452148L1207.61 323.215H1401.71L1275.78 541.417L1598.54 218.653Z" fill="black"/>
<path d="M1298.64 102.374C1298.64 62.5137 1266.29 30.1631 1226.43 30.1631C1186.57 30.1631 1154.21 62.5137 1154.21 102.374C1154.21 142.235 1186.57 174.585 1226.43 174.585C1266.29 174.585 1298.64 142.235 1298.64 102.374Z" fill="black"/>
<path d="M1579.72 367.2C1539.86 367.2 1507.51 399.551 1507.51 439.411C1507.51 479.272 1539.86 511.622 1579.72 511.622C1619.59 511.622 1651.94 479.272 1651.94 439.411C1651.94 399.551 1619.59 367.2 1579.72 367.2Z" fill="black"/>
<path d="M1018.79 54.6725C990.318 35.6088 956.399 26.1182 916.868 26.1182C877.338 26.1182 843.337 35.6088 814.7 54.6725C786.228 73.5712 764.359 101.135 749.009 137.447C733.824 173.759 726.149 217.581 726.149 269.078C725.984 320.739 733.494 364.891 748.761 401.616C764.111 438.34 786.063 466.4 814.452 485.793C843.007 505.187 877.173 514.925 916.786 515.09C956.399 515.09 990.483 505.435 1018.95 486.041C1047.43 466.647 1069.21 438.588 1084.4 401.863C1099.75 365.139 1107.42 320.904 1107.42 269.078C1107.59 217.581 1100 173.759 1084.56 137.695C1069.21 101.383 1047.26 73.7362 1018.62 54.6725H1018.79ZM981.735 391.548C965.559 418.781 944.02 432.316 916.951 432.316C898.96 432.316 883.28 426.291 869.911 414.325C856.541 402.194 846.143 384.038 838.798 359.94C831.536 335.677 827.987 305.389 827.987 269.078C828.152 215.435 836.322 175.162 852.415 148.258C868.59 121.354 890.047 107.902 916.951 107.902C934.942 107.902 950.539 113.927 963.744 125.893C977.113 137.86 987.429 155.768 994.609 179.618C1001.95 203.469 1005.67 233.261 1005.67 269.078C1005.83 323.463 997.827 364.314 981.652 391.465L981.735 391.548Z" fill="black"/>
<path d="M0.818359 106.582V195.051L108.929 127.297H111.735V504.692H211.51V32.5557H117.677L0.818359 106.582Z" fill="black"/>
<path d="M591.299 54.6725C562.827 35.6088 528.909 26.1182 489.378 26.1182C449.848 26.1182 415.847 35.6088 387.21 54.6725C358.738 73.5712 336.868 101.135 321.518 137.447C306.333 173.759 298.658 217.581 298.658 269.078C298.493 320.739 306.003 364.891 321.271 401.616C336.621 438.34 358.573 466.4 386.962 485.793C415.517 505.187 449.683 514.925 489.296 515.09C528.909 515.09 562.992 505.435 591.464 486.041C619.936 466.647 641.723 438.588 656.908 401.863C672.258 365.139 679.933 320.904 679.933 269.078C680.098 217.581 672.506 173.759 657.073 137.695C641.723 101.383 619.688 73.7362 591.134 54.6725H591.299ZM554.162 391.548C537.987 418.781 516.447 432.316 489.378 432.316C471.387 432.316 455.707 426.291 442.338 414.325C428.969 402.194 418.57 384.038 411.225 359.94C403.963 335.677 400.414 305.389 400.414 269.078C400.579 215.435 408.749 175.162 424.842 148.258C441.017 121.354 462.474 107.902 489.378 107.902C507.369 107.902 522.967 113.927 536.171 125.893C549.54 137.86 559.856 155.768 567.036 179.618C574.381 203.469 578.095 233.261 578.095 269.078C578.26 323.463 570.255 364.314 554.079 391.465L554.162 391.548Z" fill="black"/>
<path d="M2256.94 32.5557H2158.73V504.692H2256.94V32.5557Z" fill="black"/>
<path d="M3463.15 145.537C3443.35 145.537 3425.85 151.231 3410.58 162.62C3395.4 173.843 3384.51 190.431 3378.07 212.383H3374.36V150.571H3279.12V504.694H3377.33V304.318C3377.33 289.876 3380.54 277.085 3386.98 266.026C3393.58 254.967 3402.5 246.385 3413.72 240.195C3425.11 233.923 3437.98 230.704 3452.43 230.704C3459.19 230.704 3466.62 231.2 3474.79 232.355C3482.96 233.428 3489.32 234.666 3493.94 236.069V148.92C3489.65 147.847 3484.61 147.022 3478.92 146.362C3473.22 145.702 3467.94 145.454 3462.99 145.454L3463.15 145.537Z" fill="black"/>
<path d="M3623.5 150.569H3525.3V504.693H3623.5V150.569Z" fill="black"/>
<path d="M3574.65 5.57129C3560.04 5.57129 3547.5 10.5229 3537.1 20.3436C3526.78 29.9993 3521.67 41.6356 3521.67 55.17C3521.67 68.7044 3526.78 80.5883 3537.1 90.409C3547.58 100.065 3560.04 104.934 3574.65 104.934C3589.26 104.934 3601.72 100.065 3612.03 90.409C3622.51 80.5883 3627.71 68.7869 3627.71 55.17C3627.71 41.5531 3622.51 30.0818 3612.03 20.3436C3601.72 10.5229 3589.26 5.57129 3574.65 5.57129Z" fill="black"/>
<path d="M3896.42 406.981C3890.56 415.729 3883.14 422.414 3874.06 427.035C3865.14 431.657 3855.08 433.967 3843.85 433.967C3828.67 433.967 3815.38 429.841 3803.99 421.506C3792.6 413.171 3783.77 401.122 3777.5 385.276C3771.31 369.431 3768.26 350.203 3768.26 327.673C3768.26 305.143 3771.39 286.409 3777.75 270.729C3784.02 255.049 3792.77 243.165 3803.99 234.995C3815.38 226.66 3828.67 222.533 3843.85 222.533C3861.84 222.533 3876.37 227.98 3887.43 238.874C3898.65 249.602 3905.58 263.879 3908.14 281.54H4000.82C3999.42 254.224 3991.99 230.373 3978.45 210.072C3964.92 189.77 3946.6 174.007 3923.33 162.784C3900.14 151.56 3873.07 145.948 3842.2 145.948C3806.39 145.948 3775.52 153.706 3749.52 169.221C3723.53 184.571 3703.47 206.028 3689.36 233.509C3675.42 260.826 3668.4 292.681 3668.4 328.993C3668.4 365.305 3675.33 396.5 3689.11 423.982C3703.06 451.463 3723.12 473.003 3749.03 488.518C3775.19 503.868 3806.39 511.543 3842.61 511.543C3874.14 511.543 3901.37 505.766 3924.48 494.212C3947.51 482.658 3965.58 466.731 3978.62 446.264C3991.82 425.632 3999.25 401.864 4000.74 374.796H3908.06C3906.24 387.257 3902.28 397.903 3896.34 406.816L3896.42 406.981Z" fill="black"/>
<path d="M1882.43 309.681H2084.38V227.402H1882.43V114.835H2100.72V32.5557H1782.58V504.692H2101.63V422.413H1882.43V309.681Z" fill="black"/>
<path d="M2591.92 190.678C2576.81 175.74 2559.15 164.599 2538.85 157.254C2518.72 149.744 2497.01 145.948 2473.57 145.948C2438.83 145.948 2408.54 153.623 2382.71 168.973C2357.05 184.323 2337.16 205.78 2322.96 233.262C2308.85 260.743 2301.75 292.764 2301.75 329.158C2301.75 365.553 2308.85 398.893 2322.96 426.21C2337.07 453.444 2357.21 474.488 2383.37 489.343C2409.61 504.115 2440.98 511.46 2477.45 511.46C2506.67 511.46 2532.41 507.004 2554.7 498.091C2577.14 489.013 2595.47 476.386 2609.58 460.293C2623.85 444.036 2633.35 424.972 2637.97 403.102L2547.1 397.078C2543.72 405.991 2538.85 413.501 2532.33 419.69C2525.9 425.88 2518.14 430.419 2509.06 433.555C2499.98 436.608 2490 438.176 2479.1 438.176C2462.68 438.176 2448.48 434.71 2436.44 427.778C2424.47 420.846 2415.14 411.025 2408.54 398.233C2402.1 385.441 2398.89 370.339 2398.89 352.843V352.596H2640.03V325.609C2640.03 295.487 2635.82 269.244 2627.32 246.796C2618.9 224.184 2607.02 205.45 2591.83 190.513L2591.92 190.678ZM2399.13 291.938C2399.71 279.229 2402.85 267.593 2408.87 257.112C2415.31 245.558 2424.22 236.398 2435.61 229.713C2447.16 222.781 2460.37 219.315 2475.22 219.315C2490.08 219.315 2502.04 222.451 2512.77 228.805C2523.67 234.995 2532.25 243.495 2538.36 254.389C2544.55 265.282 2547.6 277.826 2547.6 291.938H2399.13Z" fill="black"/>
<path d="M3215.08 429.343C3210.46 430.086 3205.83 430.499 3201.21 430.499C3194.61 430.499 3188.75 429.508 3183.72 427.528C3178.77 425.547 3174.97 422.081 3172.16 417.129C3169.44 412.095 3168.04 404.998 3168.04 395.92V224.429H3234.64V150.65H3168.04V65.7295H3069.83V150.567H3021.39V224.346H3069.83V408.794C3069.66 431.984 3074.53 451.213 3084.35 466.398C3094.18 481.583 3107.96 492.807 3125.62 500.069C3143.44 507.331 3164.16 510.467 3187.84 509.56C3200.55 509.064 3211.45 507.826 3220.36 505.598C3229.27 503.618 3236.2 501.802 3241.07 500.317L3225.64 427.198C3223.17 427.693 3219.62 428.353 3214.99 429.261L3215.08 429.343Z" fill="black"/>
<path d="M2805.99 234.995C2817.38 226.66 2830.67 222.533 2845.85 222.533C2863.85 222.533 2878.37 227.98 2889.43 238.874C2900.65 249.602 2907.58 263.879 2910.14 281.54H3002.82C3001.42 254.224 2993.99 230.373 2980.46 210.072C2966.92 189.77 2948.6 174.007 2925.33 162.784C2902.14 151.56 2875.07 145.948 2844.2 145.948C2808.39 145.948 2777.52 153.706 2751.53 169.221C2725.53 184.571 2705.48 206.028 2691.36 233.509C2677.33 260.826 2670.4 292.681 2670.4 328.993C2670.4 365.305 2677.33 396.5 2691.12 423.982C2705.06 451.463 2725.12 473.003 2751.03 488.518C2777.19 503.868 2808.39 511.543 2844.62 511.543C2876.14 511.543 2903.38 505.766 2926.48 494.212C2949.51 482.658 2967.58 466.731 2980.62 446.264C2993.83 425.632 3001.25 401.864 3002.74 374.796H2910.06C2908.24 387.257 2904.28 397.903 2898.26 406.816C2892.4 415.564 2884.97 422.249 2875.89 426.87C2866.98 431.492 2856.91 433.802 2845.69 433.802C2830.5 433.802 2817.14 429.676 2805.83 421.341C2794.44 413.006 2785.61 400.957 2779.34 385.111C2773.23 369.266 2770.09 350.037 2770.09 327.508C2770.09 304.978 2773.23 286.244 2779.59 270.564C2785.86 254.884 2794.61 243 2805.91 234.83L2805.99 234.995Z" fill="black"/>
</svg>
